<svg width="479.25502929687497px" height="209.635009765625px" xmlns="http://www.w3.org/2000/svg" viewBox="10.372485351562517 -29.8175048828125 479.25502929687497 209.635009765625" style="background: none;" preserveAspectRatio="xMidYMid"><defs><filter id="editing-hole" x="-100%" y="-100%" width="300%" height="300%"><feFlood flood-color="#000000" result="black"></feFlood><feMorphology operator="dilate" radius="2" in="SourceGraphic" result="erode"></feMorphology><feGaussianBlur in="erode" stdDeviation="4" result="blur"></feGaussianBlur><feOffset in="blur" dx="2" dy="2" result="offset"></feOffset><feComposite operator="atop" in="offset" in2="black" result="merge"></feComposite><feComposite operator="in" in="merge" in2="SourceGraphic" result="inner-shadow"></feComposite></filter></defs><g filter="url(#editing-hole)"><g transform="translate(79.66000366210938, 134.88000106811523)"><path d="M17.88-77.64L17.88-77.64L17.88-77.64Q26.40-85.44 30.84-85.44L30.84-85.44L30.84-85.44Q35.28-85.44 43.80-77.64L43.80-77.64L43.80-77.64Q52.32-69.84 54.36-64.80L54.36-64.80L54.36-64.80Q55.68-61.32 55.68-49.08L55.68-49.08L55.68 0L39.12 0L39.12-18L22.56-18L22.56 0L6 0L6-49.08L6-49.08Q6-61.32 7.32-64.80L7.32-64.80L7.32-64.80Q9.36-69.84 17.88-77.64ZM22.56-49.08L22.56-49.08L22.56-32.40L39.12-32.40L39.12-49.08L39.12-49.08Q39.12-58.92 38.16-61.14L38.16-61.14L38.16-61.14Q37.20-63.36 34.86-65.82L34.86-65.82L34.86-65.82Q32.52-68.28 30.84-68.28L30.84-68.28L30.84-68.28Q29.16-68.28 26.82-65.82L26.82-65.82L26.82-65.82Q24.48-63.36 23.52-61.14L23.52-61.14L23.52-61.14Q22.56-58.92 22.56-49.08ZM86.16-18.30L86.16-18.30L86.16-18.30Q87-16.80 89.58-15.18L89.58-15.18L89.58-15.18Q92.16-13.56 93.90-13.56L93.90-13.56L93.90-13.56Q95.64-13.56 98.28-18L98.28-18L98.28-18Q99.84-20.76 99.84-32.34L99.84-32.34L99.84-32.34Q99.84-43.92 98.28-46.68L98.28-46.68L98.28-46.68Q97.56-48 96.18-49.56L96.18-49.56L96.18-49.56Q94.80-51.12 93.54-51.12L93.54-51.12L93.54-51.12Q92.28-51.12 89.64-49.50L89.64-49.50L89.64-49.50Q87-47.88 86.16-46.44L86.16-46.44L86.16-46.44Q85.32-45 85.32-32.40L85.32-32.40L85.32-32.40Q85.32-19.80 86.16-18.30ZM113.52-15.24L113.52-15.24L113.52-15.24Q111.96-11.28 105.54-4.92L105.54-4.92L105.54-4.92Q99.12 1.44 95.88 1.44L95.88 1.44L95.88 1.44Q92.64 1.44 85.32-5.04L85.32-5.04L85.32 5.40L85.32 5.40Q85.32 11.52 86.76 14.88L86.76 14.88L86.76 14.88Q88.20 18.24 91.32 20.76L91.32 20.76L78.12 30L78.12 30Q69.48 23.16 69.48 10.56L69.48 10.56L69.48-40.44L69.48-40.44Q69.48-51.84 63.48-56.88L63.48-56.88L76.68-66.12L76.68-66.12Q80.04-63.36 82.92-57.48L82.92-57.48L82.92-57.48Q92.28-66.12 96.24-66.12L96.24-66.12L96.24-66.12Q99.12-66.12 105.54-59.76L105.54-59.76L105.54-59.76Q111.96-53.40 113.52-49.44L113.52-49.44L113.52-49.44Q115.08-45.48 115.08-32.34L115.08-32.34L115.08-32.34Q115.08-19.20 113.52-15.24ZM143.16-18.30L143.16-18.30L143.16-18.30Q144-16.80 146.58-15.18L146.58-15.18L146.58-15.18Q149.16-13.56 150.90-13.56L150.90-13.56L150.90-13.56Q152.64-13.56 155.28-18L155.28-18L155.28-18Q156.84-20.76 156.84-32.34L156.84-32.34L156.84-32.34Q156.84-43.92 155.28-46.68L155.28-46.68L155.28-46.68Q154.56-48 153.18-49.56L153.18-49.56L153.18-49.56Q151.80-51.12 150.54-51.12L150.54-51.12L150.54-51.12Q149.28-51.12 146.64-49.50L146.64-49.50L146.64-49.50Q144-47.88 143.16-46.44L143.16-46.44L143.16-46.44Q142.32-45 142.32-32.40L142.32-32.40L142.32-32.40Q142.32-19.80 143.16-18.30ZM170.52-15.24L170.52-15.24L170.52-15.24Q168.96-11.28 162.54-4.92L162.54-4.92L162.54-4.92Q156.12 1.44 152.88 1.44L152.88 1.44L152.88 1.44Q149.64 1.44 142.32-5.04L142.32-5.04L142.32 5.40L142.32 5.40Q142.32 11.52 143.76 14.88L143.76 14.88L143.76 14.88Q145.20 18.24 148.32 20.76L148.32 20.76L135.12 30L135.12 30Q126.48 23.16 126.48 10.56L126.48 10.56L126.48-40.44L126.48-40.44Q126.48-51.84 120.48-56.88L120.48-56.88L133.68-66.12L133.68-66.12Q137.04-63.36 139.92-57.48L139.92-57.48L139.92-57.48Q149.28-66.12 153.24-66.12L153.24-66.12L153.24-66.12Q156.12-66.12 162.54-59.76L162.54-59.76L162.54-59.76Q168.96-53.40 170.52-49.44L170.52-49.44L170.52-49.44Q172.08-45.48 172.08-32.34L172.08-32.34L172.08-32.34Q172.08-19.20 170.52-15.24ZM224.16-32.52L224.16-32.52L224.16-28.20L195.12-28.20L195.12-28.20Q195.12-21 196.92-16.80L196.92-16.80L196.92-16.80Q197.52-15.36 199.08-13.86L199.08-13.86L199.08-13.86Q200.64-12.36 202.32-12.36L202.32-12.36L202.32-12.36Q204-12.36 206.52-15.24L206.52-15.24L206.52-15.24Q209.04-18.12 210.48-22.20L210.48-22.20L222.84-13.44L222.84-13.44Q219.60-7.44 212.94-3L212.94-3L212.94-3Q206.28 1.44 202.20 1.44L202.20 1.44L202.20 1.44Q198.12 1.44 190.38-4.92L190.38-4.92L190.38-4.92Q182.64-11.28 180.96-14.82L180.96-14.82L180.96-14.82Q179.28-18.36 179.28-32.34L179.28-32.34L179.28-32.34Q179.28-46.32 180.96-49.86L180.96-49.86L180.96-49.86Q182.64-53.40 190.38-59.76L190.38-59.76L190.38-59.76Q198.12-66.12 201.72-66.12L201.72-66.12L201.72-66.12Q205.32-66.12 213.06-59.76L213.06-59.76L213.06-59.76Q220.80-53.40 222.48-49.86L222.48-49.86L222.48-49.86Q224.16-46.32 224.16-32.52ZM207.54-47.58L207.54-47.58L207.54-47.58Q206.64-49.20 204.78-50.76L204.78-50.76L204.78-50.76Q202.92-52.32 201.30-52.32L201.30-52.32L201.30-52.32Q199.68-52.32 197.64-49.14L197.64-49.14L197.64-49.14Q195.60-45.96 195.12-39.60L195.12-39.60L208.80-39.60L208.80-39.60Q208.44-45.96 207.54-47.58ZM266.04-52.08L252.60-52.08L252.60-25.56L252.60-25.56Q252.60-19.92 256.44-15.24L256.44-15.24L256.44-15.24Q260.28-10.56 267-7.80L267-7.80L253.80 1.44L253.80 1.44Q246.60-1.92 241.68-7.86L241.68-7.86L241.68-7.86Q236.76-13.80 236.76-20.40L236.76-20.40L236.76-52.08L230.76-52.08L230.76-61.08L236.76-62.52L236.76-62.52Q236.52-68.40 235.32-71.82L235.32-71.82L235.32-71.82Q234.12-75.24 230.76-78.48L230.76-78.48L243.96-87.72L243.96-87.72Q252.60-80.88 252.60-68.28L252.60-68.28L252.60-64.68L266.04-64.68L266.04-52.08ZM274.80-18L274.80-64.68L290.64-64.68L290.64-23.16L290.64-23.16Q290.64-17.04 292.08-13.68L292.08-13.68L292.08-13.68Q293.52-10.32 296.64-7.80L296.64-7.80L283.44 1.44L283.44 1.44Q274.80-5.40 274.80-18L274.80-18ZM283.02-89.76L283.02-89.76L283.02-89.76Q284.28-89.76 288.84-85.86L288.84-85.86L288.84-85.86Q293.40-81.96 293.40-80.58L293.40-80.58L293.40-80.58Q293.40-79.20 288.78-75.24L288.78-75.24L288.78-75.24Q284.16-71.28 282.90-71.28L282.90-71.28L282.90-71.28Q281.64-71.28 277.08-75.18L277.08-75.18L277.08-75.18Q272.52-79.08 272.52-80.46L272.52-80.46L272.52-80.46Q272.52-81.84 277.14-85.80L277.14-85.80L277.14-85.80Q281.76-89.76 283.02-89.76ZM333.72-52.08L320.28-52.08L320.28-25.56L320.28-25.56Q320.28-19.92 324.12-15.24L324.12-15.24L324.12-15.24Q327.96-10.56 334.68-7.80L334.68-7.80L321.48 1.44L321.48 1.44Q314.28-1.92 309.36-7.86L309.36-7.86L309.36-7.86Q304.44-13.80 304.44-20.40L304.44-20.40L304.44-52.08L298.44-52.08L298.44-61.08L304.44-62.52L304.44-62.52Q304.20-68.40 303-71.82L303-71.82L303-71.82Q301.80-75.24 298.44-78.48L298.44-78.48L311.64-87.72L311.64-87.72Q320.28-80.88 320.28-68.28L320.28-68.28L320.28-64.68L333.72-64.68L333.72-52.08Z" fill="#767676"></path></g></g><style>text {
  font-size: 64px;
  font-family: Arial Black;
  dominant-baseline: central;
  text-anchor: middle;
}</style></svg>